<?xml version="1.0" encoding="UTF-8" standalone="no"?>
<!DOCTYPE svg PUBLIC "-//W3C//DTD SVG 1.1//EN"
"http://www.w3.org/Graphics/SVG/1.1/DTD/svg11.dtd">
<svg viewBox="0 0 909 1286" version="1.1" xmlns="http://www.w3.org/2000/svg" xmlns:xlink="http://www.w3.org/1999/xlink">
<defs>
<clipPath id="c0_1"><path d="M62.3 376.8v-2.2H318.1v2.2Z"/></clipPath>
<clipPath id="c1_1"><path d="M62.3 408.8V389.9h19v18.9Z"/></clipPath>
<clipPath id="c2_1"><path d="M62.3 436.6v-19h19v19Z"/></clipPath>
<clipPath id="c3_1"><path d="M62.3 464.3v-19h19v19Z"/></clipPath>
<clipPath id="c4_1"><path d="M62.3 515.9v-19h19v19Z"/></clipPath>
<clipPath id="c5_1"><path d="M62.3 627.2v-2.1H318.1v2.1Z"/></clipPath>
<clipPath id="c6_1"><path d="M62.3 928.8v-2.1H318.1v2.1Z"/></clipPath>
<clipPath id="c7_1"><path d="M62.3 1081.1V1079H318.1v2.1Z"/></clipPath>
<clipPath id="c8_1"><path d="M383.1 187.2v-2.1H840.6v2.1Z"/></clipPath>
<clipPath id="c9_1"><path d="M383.1 308.9v-2.1H840.6v2.1Z"/></clipPath>
<clipPath id="ca_1"><path d="M383.1 451.5v-2.1H840.6v2.1Z"/></clipPath>
<style type="text/css"><![CDATA[
.g0_1{
fill: #FFF;
}
.g1_1{
fill: #393E41;
}
.g2_1{
fill: #FFF;
fill-opacity: 0.32;
}
.g3_1{
fill: #000;
}
]]></style>
</defs>
<image preserveAspectRatio="none" x="0" y="0" width="909" height="1286" xlink:href="img/1.jpg"/>
<image preserveAspectRatio="none" x="63" y="67" width="198" height="199" xlink:href="img/2.png"/>
<path clip-path="url(#c0_1)" d="M62.6 375H317.8v1.4H62.6Z" class="g0_1"/>
<path clip-path="url(#c1_1)" d="M81 399.3c0 3.3 -1.8 6.3 -4.6 8c-2.8 1.6 -6.3 1.6 -9.2 0c-2.8 -1.7 -4.6 -4.7 -4.6 -8c0 -3.2 1.8 -6.3 4.6 -7.9c2.9 -1.6 6.4 -1.6 9.2 0c2.8 1.6 4.6 4.7 4.6 7.9Z" class="g0_1"/>
<path d="M75.9 395.3H67.7c-.5 0 -1 .4 -1 1v6.1c0 .6 .5 1 1 1h8.2c.5 0 1 -.4 1 -1v-6.1c0 -.6 -.5 -1 -1 -1Zm0 2l-4.1 2.6l-4.1 -2.6v-1l4.1 2.5l4.1 -2.5v1Z" class="g1_1"/>
<path clip-path="url(#c2_1)" d="M81 427.1c0 3.2 -1.8 6.3 -4.6 7.9c-2.8 1.6 -6.3 1.6 -9.2 0c-2.8 -1.6 -4.6 -4.7 -4.6 -7.9c0 -3.3 1.8 -6.3 4.6 -8c2.9 -1.6 6.4 -1.6 9.2 0c2.8 1.7 4.6 4.7 4.6 8Z" class="g0_1"/>
<path d="M69.1 426.5c.7 1.4 1.9 2.6 3.3 3.3l1.1 -1.1c.2 -.1 .4 -.2 .6 -.1c.5 .2 1.1 .3 1.8 .3c.3 0 .5 .2 .5 .5v1.7c0 .3 -.2 .6 -.5 .6c-4.8 0 -8.7 -3.9 -8.7 -8.7c0 -.3 .3 -.5 .5 -.5h1.8c.3 0 .5 .2 .5 .5c0 .6 .1 1.2 .3 1.8c.1 .2 0 .4 -.1 .5l-1.1 1.2Z" class="g1_1"/>
<path clip-path="url(#c3_1)" d="M81 454.8c0 3.3 -1.8 6.3 -4.6 7.9c-2.8 1.7 -6.3 1.7 -9.2 0c-2.8 -1.6 -4.6 -4.6 -4.6 -7.9c0 -3.3 1.8 -6.3 4.6 -7.9c2.9 -1.7 6.4 -1.7 9.2 0c2.8 1.6 4.6 4.6 4.6 7.9Z" class="g0_1"/>
<path d="M75.9 450.2H67.7c-.3 0 -.5 .2 -.5 .5v8.2c0 .3 .2 .5 .5 .5h8.2c.3 0 .5 -.2 .5 -.5v-8.2c0 -.3 -.2 -.5 -.5 -.5Zm-6 7.8H68.6v-4.3h1.3V458Zm-.6 -4.9c-.5 0 -.8 -.4 -.8 -.8c0 -.5 .3 -.8 .8 -.8c.4 0 .7 .3 .7 .8c0 .4 -.3 .8 -.7 .8ZM75 458H73.7v-2.1c0 -.5 0 -1.2 -.7 -1.2c-.7 0 -.8 .6 -.8 1.2V458H70.8v-4.3h1.3v.6c.2 -.4 .6 -.8 1.3 -.8c1.4 0 1.6 1 1.6 2.1V458Z" class="g1_1"/>
<path clip-path="url(#c4_1)" d="M81 506.4c0 3.3 -1.8 6.3 -4.6 8c-2.8 1.6 -6.3 1.6 -9.2 0c-2.8 -1.7 -4.6 -4.7 -4.6 -8c0 -3.2 1.8 -6.3 4.6 -7.9c2.9 -1.6 6.4 -1.6 9.2 0c2.8 1.6 4.6 4.7 4.6 7.9Z" class="g0_1"/>
<path d="M71.8 501.3c-2 0 -3.6 1.6 -3.6 3.6c0 2.7 3.6 6.6 3.6 6.6c0 0 3.6 -3.9 3.6 -6.6c0 -2 -1.6 -3.6 -3.6 -3.6Zm0 4.9c-.7 0 -1.3 -.6 -1.3 -1.3c0 -.7 .6 -1.3 1.3 -1.3c.7 0 1.3 .6 1.3 1.3c0 .7 -.6 1.3 -1.3 1.3Z" class="g1_1"/>
<path clip-path="url(#c5_1)" d="M62.6 625.4H317.8v1.5H62.6Z" class="g0_1"/>
<path clip-path="url(#c6_1)" d="M62.6 927.1H317.8v1.4H62.6Z" class="g0_1"/>
<path d="M62.6 963.9h6.2V970H62.6Z" class="g0_1"/>
<path d="M71.8 963.9h6.1V970H71.8Z" class="g0_1"/>
<path d="M81 963.9h6.1V970H81Z" class="g0_1"/>
<path d="M90.1 963.9h6.2V970H90.1Z" class="g0_1"/>
<path d="M99.3 963.9h6.1V970H99.3Z" class="g0_1"/>
<path d="M108.5 963.9h6.1V970h-6.1Z" class="g0_1"/>
<path d="M117.6 963.9h6.2V970h-6.2Z" class="g0_1"/>
<path d="M126.8 963.9h6.1V970h-6.1Z" class="g0_1"/>
<path d="M136 963.9h6.1V970H136Z" class="g0_1"/>
<path d="M145.1 963.9h6.2V970h-6.2Z" class="g0_1"/>
<path d="M154.3 963.9h6.1V970h-6.1Z" class="g0_1"/>
<path d="M163.5 963.9h6.1V970h-6.1Z" class="g0_1"/>
<path d="M172.6 963.9h6.2V970h-6.2Z" class="g0_1"/>
<path d="M181.8 963.9h6.1V970h-6.1Z" class="g0_1"/>
<path d="M191 963.9h6.1V970H191Z" class="g0_1"/>
<path d="M200.1 963.9h6.2V970h-6.2Z" class="g0_1"/>
<path d="M209.3 963.9h6.1V970h-6.1Z" class="g0_1"/>
<path d="M218.5 963.9h6.1V970h-6.1Z" class="g0_1"/>
<path d="M227.6 963.9h6.2V970h-6.2Z" class="g0_1"/>
<path d="M236.8 963.9h6.1V970h-6.1Z" class="g0_1"/>
<path d="M62.6 1005.4h6.2v6.1H62.6Z" class="g0_1"/>
<path d="M71.8 1005.4h6.1v6.1H71.8Z" class="g0_1"/>
<path d="M81 1005.4h6.1v6.1H81Z" class="g0_1"/>
<path d="M90.1 1005.4h6.2v6.1H90.1Z" class="g0_1"/>
<path d="M99.3 1005.4h6.1v6.1H99.3Z" class="g0_1"/>
<path d="M108.5 1005.4h6.1v6.1h-6.1Z" class="g0_1"/>
<path d="M117.6 1005.4h6.2v6.1h-6.2Z" class="g0_1"/>
<path d="M126.8 1005.4h6.1v6.1h-6.1Z" class="g0_1"/>
<path d="M136 1005.4h6.1v6.1H136Z" class="g0_1"/>
<path d="M145.1 1005.4h6.2v6.1h-6.2Z" class="g0_1"/>
<path d="M154.3 1005.4h6.1v6.1h-6.1Z" class="g0_1"/>
<path d="M163.5 1005.4h6.1v6.1h-6.1Z" class="g0_1"/>
<path d="M172.6 1005.4h6.2v6.1h-6.2Z" class="g2_1"/>
<path d="M181.8 1005.4h6.1v6.1h-6.1Z" class="g2_1"/>
<path d="M191 1005.4h6.1v6.1H191Z" class="g2_1"/>
<path d="M200.1 1005.4h6.2v6.1h-6.2Z" class="g2_1"/>
<path d="M209.3 1005.4h6.1v6.1h-6.1Z" class="g2_1"/>
<path d="M218.5 1005.4h6.1v6.1h-6.1Z" class="g2_1"/>
<path d="M227.6 1005.4h6.2v6.1h-6.2Z" class="g2_1"/>
<path d="M236.8 1005.4h6.1v6.1h-6.1Z" class="g2_1"/>
<path clip-path="url(#c7_1)" d="M62.6 1079.4H317.8v1.4H62.6Z" class="g0_1"/>
<path clip-path="url(#c8_1)" d="M383.5 185.4H840.3v1.4H383.5Z" class="g3_1"/>
<path clip-path="url(#c9_1)" d="M383.5 307.1H840.3v1.5H383.5Z" class="g3_1"/>
<path clip-path="url(#ca_1)" d="M383.5 449.7H840.3v1.4H383.5Z" class="g3_1"/>
<path d="M383.5 644.3c0 -1.2 .9 -2.1 2 -2.1c1.1 0 2 .9 2 2.1c0 1.1 -.9 2 -2 2c-1.1 0 -2 -.9 -2 -2Z" class="g1_1"/>
<path d="M383.5 664.3c0 -1.1 .9 -2 2 -2c1.1 0 2 .9 2 2c0 1.2 -.9 2.1 -2 2.1c-1.1 0 -2 -.9 -2 -2.1Z" class="g1_1"/>
<path d="M383.5 684.4c0 -1.1 .9 -2 2 -2c1.1 0 2 .9 2 2c0 1.2 -.9 2.1 -2 2.1c-1.1 0 -2 -.9 -2 -2.1Z" class="g1_1"/>
<path d="M383.5 704.5c0 -1.1 .9 -2 2 -2c1.1 0 2 .9 2 2c0 1.1 -.9 2.1 -2 2.1c-1.1 0 -2 -1 -2 -2.1Z" class="g1_1"/>
<path d="M383.5 753.9c0 -1.2 .9 -2.1 2 -2.1c1.1 0 2 .9 2 2.1c0 1.1 -.9 2 -2 2c-1.1 0 -2 -.9 -2 -2Z" class="g1_1"/>
<path d="M383.5 773.9c0 -1.1 .9 -2 2 -2c1.1 0 2 .9 2 2c0 1.2 -.9 2.1 -2 2.1c-1.1 0 -2 -.9 -2 -2.1Z" class="g1_1"/>
<path d="M383.5 794c0 -1.1 .9 -2 2 -2c1.1 0 2 .9 2 2c0 1.2 -.9 2.1 -2 2.1c-1.1 0 -2 -.9 -2 -2.1Z" class="g1_1"/>
<path d="M383.5 1013.8c0 -1.1 .9 -2 2 -2c1.1 0 2 .9 2 2c0 1.1 -.9 2 -2 2c-1.1 0 -2 -.9 -2 -2Z" class="g1_1"/>
<path d="M383.5 1134.3c0 -1.1 .9 -2 2 -2c1.1 0 2 .9 2 2c0 1.1 -.9 2.1 -2 2.1c-1.1 0 -2 -1 -2 -2.1Z" class="g1_1"/>
<path d="M383.5 1194.6c0 -1.1 .9 -2 2 -2c1.1 0 2 .9 2 2c0 1.1 -.9 2 -2 2c-1.1 0 -2 -.9 -2 -2Z" class="g1_1"/>
<path d="M383.5 1234.8c0 -1.2 .9 -2.1 2 -2.1c1.1 0 2 .9 2 2.1c0 1.1 -.9 2 -2 2c-1.1 0 -2 -.9 -2 -2Z" class="g1_1"/>
</svg>