<?xml version="1.0" encoding="UTF-8" standalone="no"?>
<!DOCTYPE svg PUBLIC "-//W3C//DTD SVG 1.1//EN"
"http://www.w3.org/Graphics/SVG/1.1/DTD/svg11.dtd">
<svg viewBox="0 0 909 1286" version="1.1" xmlns="http://www.w3.org/2000/svg" xmlns:xlink="http://www.w3.org/1999/xlink">
<defs>
<clipPath id="c0_2"><path d="M383.1 698.7v-2.1H840.6v2.1Z"/></clipPath>
<style type="text/css"><![CDATA[
.g0_2{
fill: #393E41;
}
.g1_2{
fill: #000;
}
]]></style>
</defs>
<image preserveAspectRatio="none" x="0" y="0" width="909" height="1286" xlink:href="img/1.jpg"/>
<path d="M383.5 90.1c0 -1.1 .9 -2 2 -2c1.1 0 2 .9 2 2c0 1.2 -.9 2.1 -2 2.1c-1.1 0 -2 -.9 -2 -2.1Z" class="g0_2"/>
<path d="M383.5 520.5c0 -1.1 .9 -2.1 2 -2.1c1.1 0 2 1 2 2.1c0 1.1 -.9 2 -2 2c-1.1 0 -2 -.9 -2 -2Z" class="g0_2"/>
<path d="M383.5 560.7c0 -1.2 .9 -2.1 2 -2.1c1.1 0 2 .9 2 2.1c0 1.1 -.9 2 -2 2c-1.1 0 -2 -.9 -2 -2Z" class="g0_2"/>
<path d="M383.5 580.7c0 -1.1 .9 -2 2 -2c1.1 0 2 .9 2 2c0 1.2 -.9 2.1 -2 2.1c-1.1 0 -2 -.9 -2 -2.1Z" class="g0_2"/>
<path d="M383.5 620.9c0 -1.1 .9 -2 2 -2c1.1 0 2 .9 2 2c0 1.2 -.9 2.1 -2 2.1c-1.1 0 -2 -.9 -2 -2.1Z" class="g0_2"/>
<path clip-path="url(#c0_2)" d="M383.5 696.9H840.3v1.4H383.5Z" class="g1_2"/>
</svg>